<?xml version="1.0" encoding="utf-8"?>
<!-- Generator: Adobe Illustrator 26.5.0, SVG Export Plug-In . SVG Version: 6.00 Build 0)  -->
<svg version="1.1" id="Layer_1" xmlns="http://www.w3.org/2000/svg" xmlns:xlink="http://www.w3.org/1999/xlink" x="0px" y="0px"
	 viewBox="0 0 500 250" style="enable-background:new 0 0 500 250;" xml:space="preserve">
<style type="text/css">
	.st0{fill:#ED1750;}
	.st1{fill:#091730;}
	.st2{fill:#EE3660;}
	.st3{fill:#0E163E;}
	.st4{fill:#323B66;}
	.st5{fill:#E9E9E9;}
	.st6{fill:#252C52;}
	.st7{fill:#6B6875;}
	.st8{fill:none;stroke:#241F32;stroke-width:1.071;}
	.st9{opacity:0.1;fill:#010101;enable-background:new    ;}
	.st10{clip-path:url(#SVGID_00000031176983205882269950000016370371684769849477_);}
	.st11{opacity:0.1;fill:#FFFFFF;enable-background:new    ;}
	.st12{clip-path:url(#SVGID_00000166665280179001585180000012913859520027283116_);}
</style>
<g id="Group_76" transform="translate(0 26.021)">
	<path id="Path_232" class="st0" d="M139.36,64.1l-12.57,9.81c0,0,1.3-7.15,3.86-9.81C134.52,60.07,139.36,64.1,139.36,64.1z"/>
	<g id="Group_64" transform="translate(308.882 85.572)">
		<path id="Path_233" class="st1" d="M60.1,26.28c-4.64,17.33,1.88,34.13,14.56,37.52s26.73-7.89,31.37-25.22
			S104.15,4.46,91.47,1.06S64.74,8.95,60.1,26.28z"/>
		
			<rect id="Rectangle_4" x="59.94" y="25.25" transform="matrix(0.259 -0.9659 0.9659 0.259 34.7458 115.1632)" class="st1" width="64.96" height="19.38"/>
	</g>
	<g id="Group_65" transform="translate(111.97 138.427)">
		<path id="Path_234" class="st1" d="M60.1,26.28c-4.64,17.33,1.87,34.13,14.56,37.53c12.68,3.4,26.73-7.89,31.37-25.22
			S104.15,4.46,91.47,1.06S64.74,8.95,60.1,26.28z"/>
		
			<rect id="Rectangle_5" x="59.95" y="25.25" transform="matrix(0.259 -0.9659 0.9659 0.259 34.7465 115.1642)" class="st1" width="64.96" height="19.38"/>
	</g>
	<path id="Path_235" class="st1" d="M436.11,122.04l-32.95-10.41l-142.74,43.5l-21.54,27.21l-46.75-7.6l4.61-39.68l217.58-59.98
		l32.91,21.85L436.11,122.04z"/>
	<path id="Path_236" class="st2" d="M455.29,60.72l-4.53-23.67c0,0-3.15-1.31-8.72-3.14C410.32,22.85,299.66-12.74,236.17,5.63
		C179.59,22,123.67,76.7,123.67,76.7s-33.11,17.09-49.5,30.26c-17.55,14.1-17.36,44.62-13.35,59.54
		c3.1,11.54,81.68,29.59,99.66,29.45c5.16,1.07,13.65,0.22,20.81-2.19l3.57-0.94c-0.58-8.19-0.06-16.43,1.56-24.48
		c4-20.05,20.79-33.49,34.65-31.22c13.21,2.17,22.18,16.67,17.8,45.22l19.96-9.36c35.34-11.77,71.35-21.42,107.83-28.9l14.6-1.73
		c-0.14-8.95,0.89-17.88,3.06-26.57c4.91-19.8,21.49-31.97,34.96-28.36c12.71,3.4,18.98,17.63,16.81,34.62
		c4.39-4.03,8.46-7.07,15.48-15.28c2.54-2.97,6.87-19.33,6.85-34.65C458.44,67.33,455.29,60.72,455.29,60.72z"/>
	<path id="Path_237" class="st3" d="M319.77,30.46c47.75-16.14,80.05-7.55,105.41-1.34l1.14-0.46
		c-43.45-14-134.75-39.05-190.15-23.02c-14.23,4.12-28.42,10.67-41.69,18.15c-0.72,0.46-1.44,0.93-2.16,1.4
		c-11.42,6.64-22.46,13.9-33.09,21.73c-8.49,6.32-15.85,12.32-21.63,17.26c-4.68,4.02-9.17,8.07-13.53,12.14
		c-0.25,0.24-0.39,0.37-0.39,0.37c9.05,15,42.43,26.88,105.82,28.35C229.49,105.05,263.97,49.32,319.77,30.46z"/>
	<path id="Path_238" class="st3" d="M238.88,108.13c56.2-16.91,112.58-33.11,163.23-54.08c10.61-4.4,15.22-12.09,17.19-19.56
		c0,0-43.77-17.15-91.71-1.19C263.57,54.61,238.88,108.13,238.88,108.13z"/>
	<g id="Group_66" transform="translate(327.105 90.455)">
		<path id="Path_239" class="st4" d="M60.1,26.28c-4.64,17.33,1.88,34.13,14.56,37.52c12.68,3.4,26.73-7.89,31.37-25.22
			S104.15,4.46,91.47,1.06S64.74,8.95,60.1,26.28z"/>
		
			<ellipse id="Ellipse_7" transform="matrix(0.2588 -0.9659 0.9659 0.2588 30.235 104.2716)" class="st5" cx="83.06" cy="32.43" rx="24.25" ry="17.75"/>
		<path id="Path_240" class="st6" d="M93.36,31.38l4.34,6.85c1.19,1.88-0.48,5.16-2.54,4.99l-7.52-0.59c-1.06,0.03-2,0.66-2.44,1.63
			l-4.84,8.85c-1.33,2.43-4.03,2.07-4.11-0.54l-0.31-9.54c0.08-0.98-0.56-1.88-1.51-2.15L67.1,39.5c-2.01-0.38-2.01-3.88,0-5.33
			l7.33-5.3c0.92-0.71,1.47-1.8,1.51-2.96l0.31-9.7c0.08-2.66,2.79-4.47,4.11-2.75l4.84,6.26c0.59,0.75,1.67,0.89,2.44,0.32
			l7.52-4.62c2.06-1.27,3.73,1.12,2.54,3.63l-4.34,9.17C92.84,29.21,92.84,30.39,93.36,31.38z"/>
		<path id="Path_241" class="st5" d="M79.31,31.43c-0.76,2.83,0.3,5.58,2.38,6.13s4.36-1.29,5.12-4.12s-0.31-5.57-2.38-6.13
			S80.07,28.6,79.31,31.43z"/>
	</g>
	<g id="Group_67" transform="translate(123.284 137.761)">
		
			<ellipse id="Ellipse_8" transform="matrix(0.259 -0.9659 0.9659 0.259 29.9882 115.0582)" class="st4" cx="89.98" cy="37.99" rx="32.48" ry="23.78"/>
		<path id="Path_242" class="st5" d="M72.83,33.39c-3.46,12.93,1.4,25.48,10.87,28.01s19.95-5.89,23.42-18.83
			s-1.4-25.48-10.87-28.02S76.29,20.45,72.83,33.39z"/>
		<path id="Path_243" class="st6" d="M100.27,36.93l4.34,6.85c1.19,1.88-0.48,5.16-2.54,4.99l-7.52-0.59
			c-1.06,0.03-2,0.66-2.43,1.63l-4.84,8.86c-1.33,2.43-4.03,2.07-4.12-0.55l-0.31-9.54c0.08-0.98-0.55-1.88-1.5-2.15l-7.33-1.37
			c-2.01-0.38-2.01-3.88,0-5.33l7.33-5.3c0.91-0.71,1.46-1.8,1.5-2.96l0.31-9.71c0.09-2.66,2.79-4.47,4.12-2.75l4.84,6.26
			c0.59,0.75,1.67,0.89,2.43,0.32l7.52-4.63c2.06-1.27,3.73,1.12,2.54,3.63l-4.34,9.17C99.75,34.76,99.75,35.94,100.27,36.93z"/>
		<path id="Path_244" class="st5" d="M86.22,36.98c-0.76,2.83,0.3,5.57,2.38,6.13s4.36-1.29,5.12-4.12s-0.3-5.57-2.38-6.13
			S86.98,34.15,86.22,36.98z"/>
	</g>
	<path id="Path_245" class="st7" d="M127.41,188.12"/>
	<path id="Path_246" class="st4" d="M332.34,26.67c-3.41,0.98-6.13,1.72-10.43,3.09c-28.56-10.26-57.92-18.12-87.79-23.52
		l11.19-2.83C274.06,8.06,302.91,16.14,332.34,26.67z"/>
	<path id="Path_247" class="st4" d="M206.66,17.33l-9.12,4.75c17.06,9.7,50.49,17.4,90.07,24.13c2.29-1.55,5.03-3.15,8.2-5
		C259.23,34.14,227.89,26.38,206.66,17.33z"/>
	<path id="Path_248" class="st4" d="M128.76,77.07c11.77,13.77,47,21.29,97.86,24.65c0,0,5.55-14-34.3-23.11
		C149.83,68.9,128.76,77.07,128.76,77.07z"/>
	<path id="Path_249" class="st4" d="M323.46,34.73l4.69,46.08l10.12-3.32l-5.62-45.77C329.67,32.6,326.62,33.57,323.46,34.73z"/>
	<path id="Path_250" class="st4" d="M394.17,57.27l6.88-2.8l-8.19-26.36l-6.44-0.8L394.17,57.27z"/>
	<g id="Group_68" transform="translate(8.79 27.53)">
		<path id="Path_251" class="st8" d="M319.42,5.67c1.89,14.74,5.08,45.94,5.08,45.94c2.91,4.15,4.2,9.23,3.64,14.26
			c-1.47,13.88-3.34,38.75-2.07,48.24"/>
		<path id="Path_252" class="st8" d="M230.26,80.44c6.43,6.84,7.66,32.77,11.8,56.3l112.14-30.2c4.74-1.27,9.15-5.44,11.68-11.05
			l23.95-46.87c2.67-5.91,2.98-14.17-0.97-20.29l-7.91-27.87"/>
		<path id="Path_253" class="st8" d="M220.48,77.45c0,0-0.47,2.77-4.66,5.06c-4.65,2.54-45.16,19.49-55.3,24.24
			c-12.74,5.96-29.72,9.73-40.98,8.42c-17.66-2.05-43.44-9.24-49.6-12.32c-6.73-3.36-13.79-11.02-10.51-14.48"/>
		<path id="Path_254" class="st8" d="M446.5,33.2c0,0-17.27,8.14-19.21,8.99s-3.03,3.06-3.85,6.08s-3.8,16.86-3.8,16.86"/>
		<path id="Path_255" class="st8" d="M169.56,102.72c0,0,9.04,3.35,11.41,5.11c2.91,2.16,7.36,6.48,7.78,11.38"/>
	</g>
	<path id="Path_256" class="st9" d="M133.72,181.97c2.8-0.3-3.84-10.23-4.78-12.02c-8.06-15.13-25.15-17.34-42.31-21.97
		c-15.39-4.16-18.14,1.7-20.16,4.66c-0.78,1.14-3.74,6.93-1.9,8.35c4.27,3.3,14.1,7.58,28.32,11.68
		C108.29,177.11,130.48,182.32,133.72,181.97z"/>
	<path id="Path_257" class="st5" d="M81.19,131.79c0,0-6.16-11.81-5.44-19.08c0.45-4.59,1.04-7.66,1.04-7.66
		s-13.09,9.63-11.82,16.08C66.3,127.94,81.19,131.79,81.19,131.79z"/>
	<path id="Path_258" class="st4" d="M101.88,131.13c-0.87,1.82-2.77,2.72-4.26,2.01s-1.99-2.76-1.12-4.57
		c0.87-1.82,2.78-2.72,4.26-2.01S102.75,129.31,101.88,131.13z"/>
	<path id="Path_259" class="st9" d="M244.9,114.9c80.35-23.6,165.27-54.93,205.86-77.85l4.53,23.67c0,0-14.1,7.09-28.98,13.13
		c-5.75,2.34-27.15,2.57-36.11,18.8c-14.46,26.17-15.69,34.76-21.85,38.92c-5.36,3.62-25.86,8.41-57.28,16.42
		c-17.21,4.39-60.21,16.26-60.21,16.26c-2.56-14.25-5.97-27.15-11.12-37.28c-2.16-4.19-0.51-9.33,3.68-11.49
		C243.89,115.25,244.39,115.06,244.9,114.9z"/>
	<path id="Path_260" class="st9" d="M181.67,152.38c-3.89,7.19-6.18,15.14-6.72,23.3c-0.2,2.85-2.66,5-5.51,4.8
		c-0.2-0.01-0.4-0.04-0.59-0.08c-7.34-1.34-13.64-3.74-18.17-7.9c-2.39-2.2-2.55-5.92-0.35-8.31c0.18-0.2,0.37-0.38,0.58-0.55
		c8.13-6.58,17.28-11.78,27.08-15.41c1.53-0.58,3.24,0.18,3.83,1.71C182.11,150.74,182.06,151.63,181.67,152.38z"/>
	<path id="Path_261" class="st9" d="M438.59,92.65c-4.57-7.17-5.1-12.95,1.95-17.23s10.79-9.03,11.02-1
		c0.23,11.07-2.28,22.02-7.3,31.88c-0.31,0.59-1.03,0.82-1.62,0.51c-0.34-0.18-0.58-0.51-0.64-0.89
		C441.6,103.03,441.1,96.6,438.59,92.65z"/>
	<path id="Path_262" class="st1" d="M452.48,46.22l-8.07,12.45l5.99,4.69l5.03-2.35L452.48,46.22z"/>
	<path id="Path_263" class="st5" d="M178.35,130.17c-16.3-0.15-40.8,1.62-64.16,10.64c0,0,20.71,5.28,34.58,2.51
		S178.35,130.17,178.35,130.17z"/>
	<path id="Path_264" class="st4" d="M208.65,40.05l22.18,5.94l8.42-7.69l-22.18-5.94L208.65,40.05z"/>
	<g id="Group_69" transform="translate(257.586 89.786)">
		<path id="Path_265" class="st1" d="M59.43,6.81l15.19-5.57l-0.57,3.64L58.6,10.66L59.43,6.81z"/>
		<path id="Path_266" class="st4" d="M60.1,6.03l15.19-5.57L74.72,4.1L59.27,9.88L60.1,6.03z"/>
	</g>
	<g id="Group_70" transform="translate(322.734 65.047)">
		<path id="Path_267" class="st1" d="M59.31,7.29l15.01-6.03l-0.46,3.66L58.6,11.16L59.31,7.29z"/>
		<path id="Path_268" class="st4" d="M59.96,6.49l15.01-6.03l-0.46,3.66l-15.26,6.25L59.96,6.49z"/>
	</g>
	<g id="Group_72">
		<g>
			<defs>
				<path id="SVGID_1_" d="M455.29,60.72l-4.53-23.67c0,0-3.15-1.31-8.72-3.14C410.32,22.85,299.66-12.74,236.17,5.63
					C179.59,22,123.67,76.7,123.67,76.7s-33.11,17.09-49.5,30.26c-17.55,14.1-17.36,46.5-13.35,61.42
					c3.1,11.54,81.68,29.59,99.66,29.45c7.1,1.29,14.32,1.89,21.53,1.79l2.84-6.8c-0.58-8.19-0.06-16.43,1.56-24.48
					c4-20.05,20.79-33.49,34.65-31.22c13.21,2.17,22.18,16.67,17.8,45.22l19.96-9.36c35.34-11.77,71.35-21.42,107.83-28.9l14.6-1.73
					c-0.14-8.95,0.89-17.88,3.06-26.57c4.91-19.8,21.49-31.97,34.96-28.36c12.71,3.4,18.98,17.63,16.81,34.62
					c4.39-4.03,8.46-7.07,15.48-15.28c2.54-2.97,6.87-19.33,6.85-34.65C458.44,67.33,455.29,60.72,455.29,60.72z"/>
			</defs>
			<clipPath id="SVGID_00000090272647290263101970000010731644189289407113_">
				<use xlink:href="#SVGID_1_"  style="overflow:visible;"/>
			</clipPath>
			<g id="Group_71" style="clip-path:url(#SVGID_00000090272647290263101970000010731644189289407113_);">
				<path id="Path_269" class="st11" d="M58.09,152.86c-1.54-46.52,53.98-58.64,90.24-59.36C172.87,67.31,234.12-8.12,321.2,0.46
					l44.68-5.96l-49.85-5.59L213.26,3.41L40.84,124.82L58.09,152.86z"/>
			</g>
		</g>
	</g>
	<path id="Path_271" class="st11" d="M243.3,105.05c75.98-51.07,113.32-61.57,173.51-69.26c0,0-41.11-16.38-88.24-0.43
		C266.82,56.27,243.3,105.05,243.3,105.05z"/>
	<path id="Path_272" class="st1" d="M416.74,33.58c-2.01,7.38-6.63,14.94-17.12,19.29c-49.56,20.52-104.61,36.48-159.6,52.99
		c-0.77,1.45-1.14,2.26-1.14,2.26c56.2-16.91,112.58-33.11,163.23-54.08c10.61-4.4,15.22-12.09,17.19-19.56
		C419.3,34.49,418.41,34.14,416.74,33.58z"/>
	<g id="Group_75" transform="translate(183.589 95.667)">
		<path id="Path_273" class="st9" d="M64.04,13.24c0,0-1.36,0.36,2.06,2.68c3.74,2.54,17.08,6.86,20.51,5.49
			c4.81-1.92,6.36-12.42,3.9-13.25C84.34,6.09,82.17,4.1,80.1,4.22S64.04,13.24,64.04,13.24z"/>
		<g id="Group_74">
			<path id="Path_274" class="st0" d="M58.6,11.56c0,0,10.42-11,15.3-11.1c3.8-0.07,12.67,0.28,14.73,5.31s-4.15,7.74-12.03,9.36
				s-13.27,0.39-15.18-0.64C60.22,13.8,59.24,12.79,58.6,11.56z"/>
			<g>
				<defs>
					<path id="SVGID_00000154419006141554195410000016437852066086958229_" d="M58.6,11.56c0,0,10.42-11,15.3-11.1
						c3.8-0.07,12.67,0.28,14.73,5.31s-4.15,7.74-12.03,9.36s-13.27,0.39-15.18-0.64C60.22,13.8,59.24,12.79,58.6,11.56z"/>
				</defs>
				<clipPath id="SVGID_00000155120129450879841670000005034018346579239084_">
					<use xlink:href="#SVGID_00000154419006141554195410000016437852066086958229_"  style="overflow:visible;"/>
				</clipPath>
				<g id="Group_73" style="clip-path:url(#SVGID_00000155120129450879841670000005034018346579239084_);">
					<path id="Path_275" class="st9" d="M84.06,0.88c0,0,0.68,5.46-8.14,7.58c-4.58,1.1-19.11,3.33-19.11,3.33l3.53,6.41l29.2,0.55
						l3.78-12.57l-5.34-7.21L84.06,0.88z"/>
				</g>
			</g>
		</g>
	</g>
</g>
</svg>
