<?xml version="1.0" encoding="utf-8"?>
<!-- Generator: Adobe Illustrator 26.5.0, SVG Export Plug-In . SVG Version: 6.00 Build 0)  -->
<svg version="1.1" id="Layer_1" xmlns="http://www.w3.org/2000/svg" xmlns:xlink="http://www.w3.org/1999/xlink" x="0px" y="0px"
	 viewBox="0 0 500 250" style="enable-background:new 0 0 500 250;" xml:space="preserve">
<style type="text/css">
	.st0{opacity:0.1;}
	.st1{fill:#091730;}
	.st2{opacity:0.9;}
	.st3{fill:#2075BC;}
	.st4{fill:#0E163E;}
	.st5{fill:#6B6875;}
	.st6{fill:#323B66;}
	.st7{fill:none;stroke:#241F32;stroke-width:1.073;}
	.st8{opacity:0.1;fill:#010101;enable-background:new    ;}
	.st9{opacity:0.1;fill:#FFFFFF;enable-background:new    ;}
	.st10{clip-path:url(#SVGID_00000161609224006074358580000002433610601844502432_);}
	.st11{fill:#F2F2F2;}
	.st12{clip-path:url(#SVGID_00000036216665131278530320000010523126049539249794_);}
	.st13{fill:#E9E9E9;}
	.st14{fill:#252C52;}
</style>
<g id="Group_44" transform="translate(14.474 126.605)" class="st0">
	<path id="Path_176" class="st1" d="M353.17,6.62c-13.99-3.75-36.87-3.75-50.87,0L11.02,78.38c-13.99,3.75-2.94,13.7,11.05,17.45
		l81.6,23.71c13.99,3.75,42.51,1.1,56.68-1.91C289.88,99.28,417.2,55.49,431.65,43.3c14.66-12.37,4.51-14.76-9.48-18.51L353.17,6.62
		z"/>
</g>
<g id="Group_45" transform="translate(16.005 136.984)" class="st2">
	<path id="Path_177" class="st1" d="M315.34,6.37c-13.99-3.75-36.87-3.75-50.87,0L9.49,68c-13.99,3.75,4.57,11.6,18.55,15.35
		l61.8,16.54c13.99,3.75,28.9,4.62,37.02,4.06c8.13-0.55,18.21-2.26,36.87-8.73c28.84-10,79.6-24.41,100.23-30.25
		c23.93-6.77,43.51-8.77,63.66-14c32.66-8.47,47.41-15.1,51.9-18.14s6.18-7.62-7.8-11.37L315.34,6.37z"/>
</g>
<g id="Group_59" transform="translate(0 28.999)">
	<path id="Path_178" class="st3" d="M83.81,69.24l-12.28,9.59c0,0,1.27-6.98,3.77-9.59C79.08,65.3,83.81,69.24,83.81,69.24z"/>
	<g id="Group_46" transform="translate(309.329 86.578)">
		<path id="Path_179" class="st1" d="M-1.2,29.31c-4.54,16.93,1.83,33.34,14.22,36.66c12.39,3.32,26.11-7.71,30.64-24.64
			S41.84,7.99,29.45,4.67S3.34,12.38-1.2,29.31z"/>
		
			<rect id="Rectangle_2" x="-1.35" y="28.3" transform="matrix(0.2588 -0.9659 0.9659 0.2588 -13.9648 57.3369)" class="st1" width="63.46" height="18.93"/>
	</g>
	<g id="Group_47" transform="translate(112.132 139.51)">
		<path id="Path_180" class="st1" d="M3.63,28.01c-4.53,16.93,1.83,33.34,14.22,36.66s26.11-7.71,30.65-24.64S46.66,6.7,34.27,3.38
			S8.16,11.08,3.63,28.01z"/>
		
			<rect id="Rectangle_3" x="3.48" y="27" transform="matrix(0.259 -0.9659 0.9659 0.259 -9.1336 61.0326)" class="st1" width="63.47" height="18.93"/>
	</g>
	<path id="Path_181" class="st1" d="M373.71,125.84l-32.19-10.17l-139.45,42.5l-21.05,26.58l-45.67-7.42l4.5-38.77l212.56-58.6
		l32.15,21.34L373.71,125.84z"/>
	<path id="Path_182" class="st3" d="M359.62,29.03C317.25,15.36,232.57-3.56,178.38,12.12c-55.27,16-109.9,69.43-109.9,69.43
		s-32.35,16.7-48.36,29.56C2.97,124.88,3.17,151.64,7.08,166.22c3.02,11.28,79.8,28.9,97.36,28.77c5.04,1.05,12.8,1.01,20.33,0.92
		l3.49-0.92c-0.57-8.01-0.06-16.05,1.52-23.92c3.9-19.59,20.31-32.72,33.85-30.5c12.9,2.12,21.67,16.29,17.39,44.18l19.5-9.14
		c34.52-11.5,69.7-20.93,105.35-28.23l14.27-1.69c-0.13-8.75,0.87-17.47,2.99-25.96c4.8-19.35,20.99-31.23,34.16-27.7
		c12.41,3.32,18.54,17.22,16.42,33.82c5.56-2.86,8.68-6.21,10.42-11.28c3.11-9.1,5.05-22.05,4.59-26.71
		c-0.3-3.02-0.83-6.08-3.03-7.16C380.93,66.92,371.98,44.19,359.62,29.03z"/>
	<path id="Path_183" class="st4" d="M260.05,36.37c30.67-10.13,53.31-12,95.31-8.05l4.27,0.71C317.18,15.35,232.5-3.54,178.39,12.12
		c-13.91,4.02-27.77,10.42-40.74,17.74c-0.7,0.45-1.41,0.91-2.11,1.37c-11.15,6.49-21.95,13.57-32.33,21.23
		c-8.29,6.17-15.48,12.04-21.14,16.86c-4.57,3.92-8.96,7.88-13.22,11.86c-0.25,0.24-0.38,0.36-0.38,0.36
		c8.85,14.65,41.45,26.26,103.38,27.69C171.86,109.24,205.42,54.42,260.05,36.37z"/>
	<path id="Path_184" class="st1" d="M181.03,112.25c54.9-16.52,109.98-32.35,159.47-52.84c1.16-0.42,2.29-0.94,3.37-1.55
		c3.1-2.01,12.64-22.17,12.64-22.17c-23.63-5.08-63.91-5.39-88.81,3.45C205.58,61.19,181.03,112.25,181.03,112.25z"/>
	<path id="Path_185" class="st5" d="M72.13,190.39"/>
	<path id="Path_186" class="st6" d="M272.29,32.49c-3.33,0.96-5.95,1.85-10.16,3.19c-27.9-10.01-56.58-17.69-85.76-22.96l10.93-2.76
		C215.39,14.49,243.54,22.2,272.29,32.49z"/>
	<path id="Path_187" class="st6" d="M149.55,23.55l-8.91,4.64c16.67,9.47,49.33,16.99,87.99,23.58c2.24-1.51,4.92-3.08,8.02-4.88
		C200.91,39.96,170.3,32.39,149.55,23.55z"/>
	<path id="Path_188" class="st6" d="M73.45,81.91c11.5,13.45,45.92,20.8,95.6,24.08c0,0,5.42-13.68-33.51-22.57
		C94.03,73.92,73.45,81.91,73.45,81.91z"/>
	<path id="Path_189" class="st6" d="M263.89,42.05l4.06,41.83l9.89-3.24l-4.96-41.53C269.95,39.97,266.98,40.92,263.89,42.05z"/>
	<path id="Path_190" class="st6" d="M332.27,61.34l6.73-2.73l-7.69-24.88l-6.13-0.44L332.27,61.34z"/>
	<g id="Group_48" transform="translate(9.318 27.207)">
		<path id="Path_191" class="st7" d="M258.98,11.84c1.85,14.4,4.96,44.87,4.96,44.87c2.84,4.06,4.11,9.01,3.56,13.94
			c-1.43,13.56-3.26,37.85-2.02,47.13"/>
		<path id="Path_192" class="st7" d="M171.88,84.88c6.28,6.68,7.48,32.01,11.53,55l109.56-29.5c4.63-1.24,8.93-5.31,11.41-10.79
			l23.4-45.79c2.61-5.77,2.92-13.84-0.94-19.82l-7.95-28.44"/>
		<path id="Path_193" class="st7" d="M162.33,81.96c0,0-0.46,2.71-4.55,4.94c-4.54,2.48-44.12,19.04-54.02,23.68
			c-12.44,5.82-29.08,9.82-40.03,8.23c-17.02-2.47-42.44-9.03-48.46-12.04C8.68,103.48,3.88,95.55,4.8,91.7"/>
		<path id="Path_194" class="st7" d="M375.94,53.37c0,0-8.36,5.5-9.88,6.91c-4.1,3.8-9.18,9.64-9.18,9.64"/>
		<path id="Path_195" class="st7" d="M112.58,106.65c0,0,15.06,4.22,18.75,16.11"/>
	</g>
	<path id="Path_196" class="st8" d="M89.59,193.41c3.26-0.35-13.76-24.12-15.35-25.85c-3.76-4.11-15.35-8.19-35.48-12.96
		c-17.29-4.1-20.92-2.33-22.75-0.68c-1.19,1.07-9.03,13.43-6.9,15.09c4.97,3.84,16.41,8.82,32.96,13.59
		C59.99,187.76,85.81,193.82,89.59,193.41z"/>
	<path id="Path_197" class="st8" d="M78.54,189.07c2.65,0.5-10.31-6.28-11.53-6.83c-2.9-1.31-12.14-3.95-28.27-8.15
		c-13.84-3.61-16.84-3.94-18.38-3.98c-1-0.03-6.6-0.39-5.1,0.59c3.17,2.06,10.55,5.31,23.78,8.91
		C53.36,183.49,75.46,188.5,78.54,189.07z"/>
	<path id="Path_198" class="st8" d="M186.91,118.87c78.5-23.05,157.65-54.97,160.86-56.31c10.11-4.2,9.8-16.26,17.42-11.37
		c4.72,3.02,15.54,25.04,1.01,30.94c-5.62,2.29-28.58-0.85-37.34,14.99c-14.13,25.56-15.03,32.94-21.05,37
		c-5.24,3.54-25.52,9.3-56.22,17.13c-16.81,4.29-58.86,15.83-58.86,15.83c-2.5-13.93-5.83-26.52-10.86-36.42
		c-2.11-4.09-0.49-9.12,3.6-11.22C185.93,119.21,186.41,119.01,186.91,118.87z"/>
	<path id="Path_199" class="st8" d="M125.14,155.48c-3.8,7.03-6.03,14.79-6.56,22.76c-0.19,2.78-2.59,4.88-5.37,4.69
		c-0.2-0.01-0.39-0.04-0.59-0.07c-7.17-1.31-13.32-3.65-17.75-7.72c-2.34-2.14-2.49-5.78-0.35-8.12c0.18-0.19,0.37-0.37,0.57-0.54
		c7.94-6.42,16.88-11.51,26.46-15.05c1.49-0.57,3.17,0.17,3.74,1.67C125.57,153.88,125.52,154.74,125.14,155.48z"/>
	<path id="Path_200" class="st8" d="M375.22,102.8c-3.02-4.75-3.38-8.58,1.29-11.41c4.67-2.83,7.14-5.98,7.3-0.66
		c0.15,7.33-1.51,14.58-4.84,21.11c-0.2,0.39-0.68,0.54-1.07,0.34c-0.23-0.12-0.39-0.34-0.42-0.6
		C377.21,109.67,376.88,105.41,375.22,102.8z"/>
	<path id="Path_201" class="st1" d="M374.91,64.77c2.81,5.86,5.03,11.99,6.62,18.3l4.16-2.38c-2.24-9.39-3.37-14.24-5.39-15.53
		C378.62,64.07,374.91,64.77,374.91,64.77z"/>
	<g id="Group_49" transform="translate(21.099 154.364)">
		<path id="Path_202" class="st1" d="M6.2,14.51l28.72,7.69V10.12L6.2,2.42V14.51z"/>
		<path id="Path_203" class="st6" d="M4.39,14.91l28.72,7.69V10.52L4.39,2.82V14.91z"/>
	</g>
	<path id="Path_204" class="st6" d="M151.49,45.74l21.67,5.81l8.23-7.51l-21.67-5.81L151.49,45.74z"/>
	<g id="Group_50" transform="translate(257.958 90.798)">
		<path id="Path_205" class="st1" d="M-0.59,10.18l14.84-5.44L13.69,8.3L-1.4,13.94L-0.59,10.18z"/>
		<path id="Path_206" class="st6" d="M0.06,9.42L14.9,3.98l-0.55,3.56l-15.09,5.65L0.06,9.42z"/>
	</g>
	<g id="Group_51" transform="translate(323.201 66.023)">
		<path id="Path_207" class="st1" d="M-2.31,11.26l14.66-5.89l-0.45,3.57L-3,15.04L-2.31,11.26z"/>
		<path id="Path_208" class="st6" d="M-1.68,10.48l14.67-5.89l-0.45,3.57l-14.91,6.1L-1.68,10.48z"/>
	</g>
	<path id="Path_209" class="st9" d="M186.27,110.51c82.27-60.59,164.31-67.14,164.31-67.14l2.79-6.1
		c-26.4-3.37-54.51-6.3-83.95,4.06C208.75,62.68,186.27,110.51,186.27,110.51z"/>
	<g id="Group_54" transform="translate(183.854 96.687)">
		<path id="Path_210" class="st8" d="M5.72,16.32c0,0,0.32-0.78,3.67,1.49c3.65,2.47,16.89,5.2,20.24,3.86
			c4.7-1.87,5.06-6.81,3.32-8.66c-5.4-5.72-9.52-5.62-11.54-5.5C19.39,7.63,5.72,16.32,5.72,16.32z"/>
		<g id="Group_53">
			<path id="Path_211" class="st3" d="M0.41,14.68c0,0,10.18-10.75,14.95-10.84c3.71-0.07,12.38,0.28,14.38,5.19
				s-4.05,7.56-11.75,9.14c-7.7,1.58-12.96,0.38-14.83-0.63C1.99,16.87,1.04,15.88,0.41,14.68z"/>
			<g>
				<defs>
					<path id="SVGID_1_" d="M0.41,14.68c0,0,10.18-10.75,14.95-10.84c3.71-0.07,12.38,0.28,14.38,5.19s-4.05,7.56-11.75,9.14
						c-7.7,1.58-12.96,0.38-14.83-0.63C1.99,16.87,1.04,15.88,0.41,14.68z"/>
				</defs>
				<clipPath id="SVGID_00000138566323074090003770000009172559980439198594_">
					<use xlink:href="#SVGID_1_"  style="overflow:visible;"/>
				</clipPath>
				<g id="Group_52" style="clip-path:url(#SVGID_00000138566323074090003770000009172559980439198594_);">
					<path id="Path_212" class="st8" d="M25.28,4.25c0,0,0.67,5.33-7.95,7.4C12.84,12.72-1.35,14.9-1.35,14.9l3.45,6.27l28.53,0.54
						l3.69-12.28l-5.22-7.05L25.28,4.25z"/>
				</g>
			</g>
		</g>
	</g>
	<path id="Path_214" class="st11" d="M13.5,118.28c-1.48,3.14,2.58,12.02,9.22,15.16c9.66,4.56,33.46,10.2,50.61,12.96
		c12.47,2.01,38.77-5.8,49.13-12.55c-1.67-1.51-6.82-1.51-10.92-0.31c-8.31,2.86-26.26,8-36.74,6.48
		c-18.08-2.62-41.4-8.07-49.36-11.71c-4.04-1.84-9.86-9.76-7.47-15.35C16.17,114.45,14.64,116.25,13.5,118.28z"/>
	<g id="Group_56" transform="translate(0 1.165)">
		<g>
			<defs>
				<path id="SVGID_00000055691414016943098020000006165804871781765565_" d="M364.14,41.35c0,0-2.98-3.64-2.58-5.66
					C319.19,22.03,232.57-4.73,178.38,10.95c-55.27,16-109.9,69.43-109.9,69.43s-32.35,16.7-48.36,29.56
					C2.97,123.71,3.17,150.47,7.08,165.05c3.02,11.28,79.8,28.9,97.36,28.77c5.04,1.05,12.8,1.01,20.33,0.92l3.49-0.92
					c-0.57-8.01-0.06-16.05,1.52-23.92c3.9-19.59,20.31-32.72,33.85-30.5c12.9,2.12,21.67,16.29,17.39,44.18l19.5-9.14
					c34.52-11.5,69.7-20.93,105.35-28.23l14.27-1.69c-0.13-8.75,0.87-17.47,2.99-25.96c4.8-19.35,20.99-31.23,34.16-27.7
					c12.41,3.32,18.54,17.22,16.42,33.82c5.56-2.86,8.68-6.21,10.42-11.28c3.11-9.1,3.79-20.59,3.34-25.25
					c-0.25-2.39-0.7-4.76-1.34-7.09C382.15,66.3,371.17,49.68,364.14,41.35z"/>
			</defs>
			<clipPath id="SVGID_00000122683306011771909080000005872173687101636268_">
				<use xlink:href="#SVGID_00000055691414016943098020000006165804871781765565_"  style="overflow:visible;"/>
			</clipPath>
			<g id="Group_55" style="clip-path:url(#SVGID_00000122683306011771909080000005872173687101636268_);">
				<path id="Path_215" class="st9" d="M4.41,154.79C2.9,109.34,57.14,97.5,92.57,96.79c23.97-25.59,83.81-99.28,168.88-90.9
					l43.64-5.82l-48.7-5.46L156,8.78L-12.45,127.4L4.41,154.79z"/>
			</g>
		</g>
	</g>
	<g id="Group_57" transform="translate(123.467 138.84)">
		
			<ellipse id="Ellipse_5" transform="matrix(0.259 -0.9659 0.9659 0.259 -14.0025 60.6771)" class="st6" cx="32.54" cy="39.46" rx="31.73" ry="23.23"/>
		<path id="Path_217" class="st13" d="M15.79,34.97C12.4,47.61,17.15,59.87,26.4,62.34c9.25,2.48,19.49-5.76,22.88-18.4
			s-1.37-24.89-10.62-27.37S19.17,22.34,15.79,34.97z"/>
		<path id="Path_218" class="st14" d="M35.07,22.1L35.07,22.1c1.68-3.11,5.14-2.48,5.03,0.91l0,0c-0.07,2.28,1.61,3.57,3.41,2.61
			l0,0c2.67-1.42,4.51,2.01,2.68,5l0,0c-1.23,2.01-0.85,4.57,0.77,5.19l0,0c2.42,0.93,1.78,5.57-0.93,6.76l0,0
			c-1.91,1.03-2.84,3.26-2.22,5.34l0,0c1.03,2.85-1.79,6.52-4.11,5.35l0,0c-1.55-0.79-3.61,0.69-4.18,2.99l0,0
			c-0.84,3.43-4.52,4.42-5.36,1.44l0,0c-0.56-2-2.62-2.38-4.18-0.76l0,0c-2.31,2.41-5.14,0.25-4.11-3.15l0,0
			c0.69-2.28-0.4-4.33-2.22-4.15l0,0c-2.71,0.26-3.35-4.03-0.93-6.26l0,0c1.63-1.49,2-4.25,0.77-5.6l0,0
			c-1.83-2.01,0.01-6.43,2.68-6.44l0,0c1.8-0.01,3.47-2.19,3.41-4.43l0,0c-0.1-3.34,3.36-5.82,5.04-3.61l0,0
			C31.75,24.77,33.94,24.19,35.07,22.1z"/>
		<path id="Path_219" class="st13" d="M28.87,38.48c-0.74,2.76,0.3,5.44,2.32,5.99c2.02,0.54,4.27-1.26,5.01-4.02
			c0.74-2.76-0.3-5.44-2.32-5.99C31.85,33.91,29.61,35.72,28.87,38.48z"/>
	</g>
	<path id="Path_220" class="st6" d="M74.81,140.03c-18.87-2.98-34.98-6.58-49.36-11.71l-2.02,5.44c6.17,3.15,30.11,9.86,49.49,12.61
		L74.81,140.03z"/>
	<path id="Path_221" class="st8" d="M74.29,141.74c-18.48-2.7-34.42-6.54-48.8-11.67l-0.96,2.72c8.74,3.75,29.4,9.4,48.78,12.14
		L74.29,141.74z"/>
	<g id="Group_58" transform="translate(320.671 85.907)">
		
			<ellipse id="Ellipse_6" transform="matrix(0.2588 -0.9659 0.9659 0.2588 -18.8313 56.9742)" class="st6" cx="27.71" cy="40.76" rx="31.73" ry="23.23"/>
		<path id="Path_222" class="st13" d="M10.96,36.27c-3.39,12.64,1.37,24.89,10.62,27.37c9.25,2.48,19.49-5.76,22.88-18.4
			c3.39-12.64-1.37-24.89-10.62-27.37C24.59,15.4,14.35,23.63,10.96,36.27z"/>
		<path id="Path_223" class="st14" d="M30.24,23.39L30.24,23.39c1.68-3.11,5.14-2.48,5.04,0.91l0,0c-0.07,2.28,1.61,3.57,3.41,2.61
			l0,0c2.67-1.42,4.51,2.01,2.68,5l0,0c-1.23,2.01-0.85,4.57,0.77,5.19l0,0c2.42,0.93,1.78,5.57-0.93,6.75l0,0
			c-1.92,1.03-2.84,3.26-2.22,5.34l0,0c1.03,2.85-1.79,6.52-4.11,5.35l0,0c-1.55-0.78-3.61,0.69-4.18,2.99l0,0
			c-0.84,3.43-4.52,4.42-5.37,1.44l0,0c-0.56-2-2.62-2.38-4.18-0.76l0,0c-2.31,2.41-5.14,0.25-4.11-3.15l0,0
			c0.69-2.28-0.4-4.33-2.22-4.15l0,0c-2.71,0.26-3.35-4.03-0.93-6.26l0,0c1.63-1.49,2-4.25,0.77-5.6l0,0
			c-1.84-2.01,0.01-6.43,2.68-6.44l0,0c1.8,0,3.47-2.19,3.41-4.43l0,0c-0.1-3.34,3.36-5.82,5.03-3.61l0,0
			C26.92,26.07,29.11,25.48,30.24,23.39z"/>
		<path id="Path_224" class="st13" d="M24.04,39.78c-0.74,2.76,0.3,5.44,2.32,5.99c2.02,0.54,4.26-1.26,5-4.02
			c0.74-2.76-0.3-5.44-2.32-5.99C27.03,35.21,24.79,37.01,24.04,39.78z"/>
	</g>
</g>
<path id="Path_225" class="st7" d="M73.81,172.34c-18.63-2.76-37.61-7.29-49.26-12.28"/>
</svg>
