<?xml version="1.0" encoding="utf-8"?>
<!-- Generator: Adobe Illustrator 26.5.0, SVG Export Plug-In . SVG Version: 6.00 Build 0)  -->
<svg version="1.1" id="Layer_1" xmlns="http://www.w3.org/2000/svg" xmlns:xlink="http://www.w3.org/1999/xlink" x="0px" y="0px"
	 viewBox="0 0 500 250" style="enable-background:new 0 0 500 250;" xml:space="preserve">
<style type="text/css">
	.st0{fill:none;stroke:#241F32;stroke-width:2;}
	.st1{fill:#091730;}
	.st2{fill:#445A6D;}
	.st3{fill:#2075BC;}
</style>
<g id="Group_60" transform="translate(364.904)">
	<path id="Path_226" class="st0" d="M114.89,6.91c18.77,4.31,0.33,42.44,2.28,74.96c1.99,33.22,27.91,58.02-5.89,75.45
		c-17.69,9.12-44.8,17.85-61.71,13.66c-29.83-7.39-33.44-53.31-39.31-62.96"/>
	<path id="Path_227" class="st1" d="M-2.83,97.43l7.18-3.66c0.89-0.45,1.98-0.1,2.43,0.79c0.05,0.09,0.08,0.18,0.11,0.28l1.55,4.88
		c0.27,0.83-0.1,1.74-0.88,2.15l-6.97,3.71c-0.88,0.47-1.98,0.13-2.45-0.75c-0.04-0.08-0.08-0.16-0.11-0.24l-1.75-4.93
		C-4.02,98.79-3.64,97.84-2.83,97.43z"/>
	<path id="Path_228" class="st2" d="M-1.99,98.02l5.81-3.12l4.24,2.88l4.96,10.25L8.9,110.3l-6.05-7.46l-2.18,0.61L-1.99,98.02z"/>
	<path id="Path_229" class="st3" d="M-3.86,96.79l1.9-4.27c0.26-0.59,0.72-0.08,0.97,1.07l1.12,5.27c0.2,0.78,0.19,1.6-0.02,2.37
		l-1.83,4.31c-0.25,0.6-0.71,0.14-0.96-0.99l-1.19-5.31C-4.08,98.45-4.08,97.6-3.86,96.79z"/>
</g>
</svg>
