<?xml version="1.0" encoding="utf-8"?>
<!-- Generator: Adobe Illustrator 26.5.0, SVG Export Plug-In . SVG Version: 6.00 Build 0)  -->
<svg version="1.1" id="Layer_1" xmlns="http://www.w3.org/2000/svg" xmlns:xlink="http://www.w3.org/1999/xlink" x="0px" y="0px"
	 viewBox="0 0 150 230" style="enable-background:new 0 0 150 230;" xml:space="preserve">
<style type="text/css">
	.st0{fill:#091730;}
	.st1{fill:#B5BDC5;}
	.st2{fill:#E6E7E7;}
	.st3{fill:none;stroke:#241F32;stroke-width:2;}
	.st4{fill:#445A6D;}
</style>
<g id="Group_33" transform="translate(39.913 3.697)">
	<path id="Path_127" class="st0" d="M16.56,98.9l16.17-4.33V76.3l-16.17,4.33V98.9z"/>
	<path id="Path_128" class="st1" d="M32.74,76.3v18.26l-1.89-0.51V76.81L32.74,76.3z"/>
	<path id="Path_129" class="st2" d="M16.56,98.9l16.17-4.33l-1.89-0.51l-14.29,3.83v1.01H16.56z"/>
</g>
<path id="Path_152" class="st3" d="M64.57,91.3c18.62,4.27,18.85,40.88,18.85,82.03c0,32.32,75.54,24.33,45.93,38.3
	c-40.1,18.93-91.02,21.33-76.75,4.49c20.14-23.77,14.5-68.24,11.95-109.2"/>
<path id="Path_153" class="st4" d="M58.02,92.48l6.54-0.28l2.54,4.41v11.3l-4.67,0.23l-2.17-9.28l-2.21-0.4L58.02,92.48z"/>
</svg>
