<?xml version="1.0" encoding="utf-8"?>
<!-- Generator: Adobe Illustrator 26.5.0, SVG Export Plug-In . SVG Version: 6.00 Build 0)  -->
<svg version="1.1" id="Layer_1" xmlns="http://www.w3.org/2000/svg" xmlns:xlink="http://www.w3.org/1999/xlink" x="0px" y="0px"
	 viewBox="0 0 150 230" style="enable-background:new 0 0 150 230;" xml:space="preserve">
<style type="text/css">
	.st0{opacity:0.2;fill:#252C52;enable-background:new    ;}
	.st1{fill:#454152;}
	.st2{fill:#091730;}
	.st3{fill:#E6E7E7;}
	.st4{fill:#D0D2D3;}
	.st5{fill:#7D8292;}
	.st6{fill:#B5BDC5;}
	.st7{fill:#FFFFFF;}
	.st8{fill:#445A6D;}
	.st9{fill:#F2F2F2;}
	.st10{opacity:0.1;fill:#252C52;enable-background:new    ;}
	.st11{fill:#0FAA8B;}
	.st12{fill:#55578C;}
</style>
<path id="Path_118" class="st0" d="M52.6,204.54h27.55l39.64-10.62l-26.09-6.98H52.6L52.6,204.54z"/>
<g id="Group_30" transform="translate(4.106 192.034)">
	<path id="Path_119" class="st1" d="M48.49,12.5L12.85,2.95v-4.16l35.64,9.55V12.5z"/>
	<path id="Path_120" class="st2" d="M48.49,12.5l35.64-9.55v-4.16L48.49,8.34V12.5z"/>
</g>
<g id="Group_31" transform="translate(0 50.156)">
	<path id="Path_121" class="st3" d="M52.6,151.93l-39.62-10.62V13.98L52.6,24.59V151.93z"/>
	<path id="Path_122" class="st4" d="M52.6,151.93l39.62-10.62V13.98L52.6,24.59V151.93z"/>
	<path id="Path_123" class="st5" d="M92.21,13.98L52.6,3.36L12.98,13.98L52.6,24.59L92.21,13.98z"/>
</g>
<g id="Group_32" transform="translate(0 38.859)">
	<path id="Path_124" class="st4" d="M47.73,148.16l-29.87-8V75.17l29.87,8V148.16z"/>
	<path id="Path_125" class="st6" d="M17.85,75.17v64.99l3.48-0.93V76.1L17.85,75.17z"/>
	<path id="Path_126" class="st7" d="M47.73,148.16l-29.87-8.01l3.48-0.93l26.39,7.07L47.73,148.16z"/>
</g>
<g id="Group_34" transform="translate(6.247 77.265)">
	<path id="Path_130" class="st8" d="M39,81.77l-21.35-5.72v-2.12L39,79.65V81.77z"/>
	<path id="Path_131" class="st8" d="M39,104.54l-21.35-5.72V96.7L39,102.42V104.54z"/>
	<path id="Path_132" class="st8" d="M39,99.99l-21.35-5.72v-2.12L39,97.86V99.99z"/>
	<path id="Path_133" class="st8" d="M39,95.43l-21.35-5.72v-2.12L39,93.31V95.43z"/>
	<path id="Path_134" class="st8" d="M39,90.88l-21.35-5.72v-2.12L39,88.76V90.88z"/>
	<path id="Path_135" class="st8" d="M39,86.33l-21.35-5.72v-2.12L39,84.2V86.33z"/>
</g>
<g id="Group_35" transform="translate(6.247 48.859)">
	<path id="Path_136" class="st8" d="M39,82.69l-21.35-5.72v-2.12L39,80.56V82.69z"/>
	<path id="Path_137" class="st8" d="M39,105.46l-21.35-5.72v-2.12L39,103.33V105.46z"/>
	<path id="Path_138" class="st8" d="M39,100.9l-21.35-5.72v-2.13L39,98.77V100.9z"/>
	<path id="Path_139" class="st8" d="M39,96.35l-21.35-5.72V88.5L39,94.22V96.35z"/>
	<path id="Path_140" class="st8" d="M39,91.79l-21.35-5.72v-2.12L39,89.67V91.79z"/>
	<path id="Path_141" class="st8" d="M39,87.24l-21.35-5.72V79.4L39,85.12V87.24z"/>
</g>
<g id="Group_37">
	<g id="Group_36">
		<path id="Path_142" class="st8" d="M47.73,118.16l-29.87-8V76.42l29.87,8V118.16z"/>
		<path id="Path_143" class="st6" d="M17.85,76.42v33.74l3.48-0.93l9.11-29.43L17.85,76.42z"/>
		<path id="Path_144" class="st7" d="M47.73,118.16l-29.87-8l3.48-0.93l26.39,7.07L47.73,118.16z"/>
	</g>
	<path id="Path_145" class="st2" d="M47.73,106.68l-21.55-5.78l4.8-15.87l16.77,4.49L47.73,106.68z"/>
</g>
<g id="Group_39" transform="translate(0.303)">
	<path id="Path_146" class="st3" d="M52.3,73.32L12.97,62.79V15.51L52.3,26.05V73.32z"/>
	<path id="Path_147" class="st4" d="M52.29,73.32l39.32-10.54V15.51L52.29,26.04V73.32z"/>
	<path id="Path_148" class="st9" d="M91.62,15.51L52.3,4.98L12.97,15.51L52.3,26.05L91.62,15.51z"/>
</g>
<path id="Path_149" class="st10" d="M52.6,202.09l39.62-10.62V64.13L52.6,202.09z"/>
<g id="Group_40" transform="translate(9.831 22.73)">
	<path id="Path_150" class="st11" d="M29.16,19.97l-6.54-1.75V4.24l-9.96,17.51l6.54,1.75v13.97L29.16,19.97z"/>
</g>
<path id="Path_151" class="st4" d="M80.04,38.6l-6.17,1.65V27.07l-9.39,21.55l6.17-1.65v13.18L80.04,38.6z"/>
<g id="Group_42" transform="translate(11.304 100.513)">
	<path id="Path_154" class="st2" d="M15.52,3.08l-1.11-0.3l0.33-1.05l1.12,0.3L15.52,3.08z"/>
	<path id="Path_155" class="st2" d="M17.33,3.56l-1.11-0.3l0.33-1.05l1.12,0.3L17.33,3.56z"/>
	<path id="Path_156" class="st2" d="M19.14,4.04l-1.12-0.3l0.33-1.05L19.48,3L19.14,4.04z"/>
	<path id="Path_157" class="st2" d="M20.96,4.52l-1.12-0.3l0.33-1.05l1.12,0.3L20.96,4.52z"/>
	<path id="Path_158" class="st2" d="M22.77,5.01l-1.12-0.3l0.33-1.05l1.11,0.3L22.77,5.01z"/>
	<path id="Path_159" class="st2" d="M14.92,4.94l-1.12-0.3l0.33-1.05l1.11,0.3L14.92,4.94z"/>
	<path id="Path_160" class="st2" d="M16.74,5.43l-1.12-0.3l0.33-1.05l1.11,0.3L16.74,5.43z"/>
	<path id="Path_161" class="st2" d="M18.55,5.91l-1.12-0.3l0.33-1.05l1.12,0.3L18.55,5.91z"/>
	<path id="Path_162" class="st2" d="M20.36,6.39l-1.11-0.3l0.33-1.05l1.12,0.3L20.36,6.39z"/>
	<path id="Path_163" class="st2" d="M22.17,6.87l-1.11-0.3l0.33-1.05l1.12,0.3L22.17,6.87z"/>
	<path id="Path_164" class="st2" d="M14.33,6.81l-1.12-0.3l0.33-1.05l1.12,0.3L14.33,6.81z"/>
	<path id="Path_165" class="st2" d="M16.14,7.29l-1.12-0.3l0.33-1.05l1.12,0.3L16.14,7.29z"/>
	<path id="Path_166" class="st2" d="M17.95,7.77l-1.12-0.3l0.33-1.05l1.12,0.3L17.95,7.77z"/>
	<path id="Path_167" class="st2" d="M19.77,8.25l-1.12-0.3l0.33-1.05l1.12,0.3L19.77,8.25z"/>
	<path id="Path_168" class="st2" d="M21.58,8.74l-1.12-0.3l0.33-1.05l1.11,0.3L21.58,8.74z"/>
	<path id="Path_169" class="st2" d="M13.73,8.67l-1.12-0.3l0.33-1.05l1.11,0.3L13.73,8.67z"/>
	<path id="Path_170" class="st2" d="M15.55,9.16l-1.12-0.3l0.33-1.05l1.12,0.3L15.55,9.16z"/>
	<path id="Path_171" class="st2" d="M17.36,9.64l-1.11-0.3l0.33-1.05l1.12,0.3L17.36,9.64z"/>
	<path id="Path_172" class="st2" d="M19.17,10.12l-1.11-0.3l0.33-1.05l1.12,0.3L19.17,10.12z"/>
	<path id="Path_173" class="st2" d="M20.98,10.6l-1.12-0.3l0.33-1.05l1.12,0.3L20.98,10.6z"/>
</g>
<path id="Path_174" class="st12" d="M39.65,105.99c0.13,0.38-0.01,0.79-0.33,1.02c-0.22,0.21-0.56,0.2-0.77-0.02
	c-0.04-0.04-0.07-0.08-0.09-0.13c-0.13-0.38,0.01-0.79,0.33-1.02c0.22-0.21,0.56-0.2,0.76,0.02
	C39.6,105.89,39.63,105.94,39.65,105.99z"/>
<path id="Path_175" class="st12" d="M41.42,106.47c0.13,0.38-0.01,0.79-0.33,1.02c-0.22,0.21-0.56,0.2-0.77-0.02
	c-0.04-0.04-0.07-0.08-0.09-0.13c-0.13-0.38,0.01-0.79,0.33-1.02c0.22-0.21,0.56-0.2,0.77,0.02
	C41.37,106.38,41.4,106.42,41.42,106.47z"/>
</svg>
