<?xml version="1.0" encoding="utf-8"?>
<!-- Generator: Adobe Illustrator 26.5.0, SVG Export Plug-In . SVG Version: 6.00 Build 0)  -->
<svg version="1.1" id="Layer_1" xmlns="http://www.w3.org/2000/svg" xmlns:xlink="http://www.w3.org/1999/xlink" x="0px" y="0px"
	 viewBox="0 0 633 106" style="enable-background:new 0 0 633 106;" xml:space="preserve">
<style type="text/css">
	.st0{fill:#376B9B;}
	.st1{fill:#E69E32;}
</style>
<path class="st0" d="M534.75,25.97c-2.32,0-4.45-0.57-6.37-1.71c-1.92-1.14-3.45-2.67-4.59-4.59c-1.14-1.92-1.71-4.07-1.71-6.43
	c0-2.32,0.57-4.43,1.71-6.33c1.14-1.9,2.67-3.42,4.59-4.56c1.92-1.14,4.04-1.71,6.37-1.71c2.37,0,4.5,0.57,6.4,1.71
	c1.9,1.14,3.42,2.66,4.56,4.56c1.14,1.9,1.71,4.01,1.71,6.33c0,2.37-0.57,4.51-1.71,6.43c-1.14,1.92-2.66,3.45-4.56,4.59
	C539.25,25.4,537.12,25.97,534.75,25.97z"/>
<path class="st0" d="M151.93,105.16V0.63h35.54c7.14,0,13.34,1.25,18.62,3.74c5.28,2.49,9.35,6.1,12.23,10.83
	c2.87,4.73,4.31,10.43,4.31,17.1c0,5.19-0.93,9.88-2.79,14.06c-1.86,4.18-4.53,7.72-8.01,10.61c-3.48,2.89-7.68,5.04-12.58,6.43
	l29.53,36.04c1.87,2.28,0.25,5.71-2.7,5.71h-18.66l-32-39.4h-3.03v33.29c0,3.38-2.74,6.11-6.11,6.11H151.93z M172.39,48.71h8.74
	c4.22,0,7.83-0.63,10.83-1.9c3-1.27,5.28-3.08,6.84-5.45c1.56-2.36,2.34-5.22,2.34-8.55c0-5.03-1.73-8.91-5.19-11.66
	c-3.46-2.75-8.4-4.12-14.82-4.12h-8.74V48.71z"/>
<path class="st0" d="M267.42,105.16c-7.18,0-13.65-1.47-19.42-4.4c-5.77-2.93-10.33-6.99-13.68-12.16
	c-3.36-5.17-5.03-11.14-5.03-17.9c0-6.76,1.68-12.72,5.03-17.9c3.36-5.17,7.91-9.23,13.65-12.16c5.74-2.94,12.2-4.4,19.38-4.4
	c7.18,0,13.64,1.47,19.38,4.4c5.74,2.94,10.3,6.99,13.65,12.16c3.36,5.17,5.04,11.14,5.04,17.9c0,6.76-1.68,12.72-5.04,17.9
	c-3.36,5.17-7.91,9.23-13.65,12.16C280.99,103.69,274.55,105.16,267.42,105.16z M267.42,88.56c3.29,0,6.29-0.76,8.99-2.28
	s4.84-3.62,6.4-6.3c1.56-2.68,2.34-5.77,2.34-9.28c0-3.5-0.78-6.6-2.34-9.28c-1.56-2.68-3.7-4.78-6.4-6.3
	c-2.7-1.52-5.7-2.28-8.99-2.28c-3.34,0-6.35,0.76-9.03,2.28c-2.68,1.52-4.81,3.62-6.4,6.3c-1.59,2.68-2.38,5.78-2.38,9.28
	c0,3.5,0.79,6.6,2.38,9.28c1.58,2.68,3.72,4.78,6.4,6.3C261.07,87.8,264.08,88.56,267.42,88.56z"/>
<path class="st0" d="M342.48,105.16c-5.95,0-11.37-1.49-16.25-4.46c-4.88-2.98-8.74-7.07-11.59-12.29
	c-2.85-5.22-4.28-11.14-4.28-17.77c0-6.54,1.38-12.4,4.15-17.58c2.77-5.17,6.57-9.27,11.4-12.29c4.83-3.02,10.36-4.53,16.56-4.53
	c4.6,0,8.9,0.88,12.89,2.63c3.99,1.75,7.25,4.19,9.79,7.32v-7.92h19.45v57.5c0,4.07-3.3,7.37-7.37,7.37h-12.08v-8.55
	c-2.96,3.38-6.35,5.99-10.2,7.82C351.12,104.24,346.96,105.16,342.48,105.16z M348.25,88.62c3.38,0,6.37-0.77,8.96-2.31
	c2.6-1.54,4.65-3.65,6.15-6.34c1.5-2.68,2.25-5.77,2.25-9.28c0-3.46-0.75-6.55-2.25-9.25c-1.5-2.7-3.55-4.83-6.15-6.37
	c-2.6-1.54-5.58-2.31-8.96-2.31c-3.34,0-6.31,0.77-8.93,2.31c-2.62,1.54-4.69,3.66-6.21,6.37c-1.52,2.7-2.28,5.79-2.28,9.25
	c0,3.42,0.76,6.48,2.28,9.19c1.52,2.7,3.59,4.84,6.21,6.4C341.93,87.84,344.91,88.62,348.25,88.62z"/>
<path class="st0" d="M421.46,105.16c-5.87,0-11.24-1.47-16.09-4.4c-4.86-2.93-8.72-7-11.59-12.19c-2.87-5.19-4.31-11.15-4.31-17.86
	c0-6.59,1.4-12.48,4.18-17.68c2.79-5.19,6.63-9.29,11.53-12.29c4.9-3,10.47-4.5,16.72-4.5c4.56,0,8.77,0.88,12.64,2.63
	c3.86,1.75,7.11,4.19,9.72,7.32V0.63h19.45v95.13c0,4.07-3.3,7.37-7.37,7.37h-12.08v-8.55c-2.91,3.34-6.33,5.93-10.26,7.79
	C430.07,104.23,425.89,105.16,421.46,105.16z M427.29,88.62c3.38,0,6.38-0.77,9-2.31c2.62-1.54,4.68-3.65,6.18-6.34
	c1.5-2.68,2.25-5.75,2.25-9.22c0-3.46-0.75-6.54-2.25-9.25c-1.5-2.7-3.56-4.84-6.18-6.4c-2.62-1.56-5.6-2.34-8.93-2.34
	c-3.34,0-6.31,0.78-8.93,2.34c-2.62,1.56-4.69,3.7-6.21,6.4c-1.52,2.7-2.28,5.81-2.28,9.31c0,3.42,0.73,6.48,2.19,9.19
	c1.46,2.7,3.49,4.81,6.11,6.34C420.85,87.86,423.87,88.62,427.29,88.62z"/>
<path class="st0" d="M494.3,105.16c-2.32,0-4.45-0.57-6.37-1.71c-1.92-1.14-3.45-2.67-4.59-4.59c-1.14-1.92-1.71-4.07-1.71-6.43
	c0-2.32,0.57-4.43,1.71-6.33c1.14-1.9,2.67-3.42,4.59-4.56c1.92-1.14,4.04-1.71,6.37-1.71c2.37,0,4.5,0.57,6.4,1.71
	c1.9,1.14,3.42,2.66,4.56,4.56c1.14,1.9,1.71,4.01,1.71,6.33c0,2.37-0.57,4.51-1.71,6.43c-1.14,1.92-2.66,3.45-4.56,4.59
	C498.8,104.59,496.67,105.16,494.3,105.16z"/>
<path class="st0" d="M525.03,105.16V36.23h19.45v61.55c0,4.07-3.3,7.37-7.37,7.37H525.03z"/>
<path class="st0" d="M591.55,105.16c-7.18,0-13.65-1.47-19.42-4.4c-5.77-2.93-10.33-6.99-13.68-12.16
	c-3.36-5.17-5.03-11.14-5.03-17.9c0-6.76,1.68-12.72,5.03-17.9c3.36-5.17,7.91-9.23,13.65-12.16c5.74-2.94,12.2-4.4,19.38-4.4
	c7.18,0,13.64,1.47,19.38,4.4c5.74,2.94,10.3,6.99,13.65,12.16c3.36,5.17,5.04,11.14,5.04,17.9c0,6.76-1.68,12.72-5.04,17.9
	c-3.36,5.17-7.91,9.23-13.65,12.16C605.12,103.69,598.68,105.16,591.55,105.16z M591.55,88.56c3.29,0,6.29-0.76,8.99-2.28
	c2.7-1.52,4.84-3.62,6.4-6.3c1.56-2.68,2.34-5.77,2.34-9.28c0-3.5-0.78-6.6-2.34-9.28c-1.56-2.68-3.7-4.78-6.4-6.3
	c-2.7-1.52-5.7-2.28-8.99-2.28c-3.34,0-6.35,0.76-9.03,2.28c-2.68,1.52-4.81,3.62-6.4,6.3c-1.59,2.68-2.38,5.78-2.38,9.28
	c0,3.5,0.79,6.6,2.38,9.28c1.58,2.68,3.72,4.78,6.4,6.3C585.2,87.8,588.21,88.56,591.55,88.56z"/>
<path class="st0" d="M109.72,10.05v9.27c-47.39,0-85.81,38.42-85.81,85.82h-9.28c-5.17,0-9.36-4.19-9.36-9.36V10.05
	c0-5.17,4.19-9.36,9.36-9.36h85.73C105.53,0.7,109.72,4.89,109.72,10.05z"/>
<path class="st1" d="M109.72,58.26v37.52c0,5.17-4.19,9.36-9.36,9.36H62.84C62.84,79.25,83.83,58.26,109.72,58.26z"/>
</svg>
