<?xml version="1.0" encoding="utf-8"?>
<!-- Generator: Adobe Illustrator 26.5.0, SVG Export Plug-In . SVG Version: 6.00 Build 0)  -->
<svg version="1.1" id="Layer_1" xmlns="http://www.w3.org/2000/svg" xmlns:xlink="http://www.w3.org/1999/xlink" x="0px" y="0px"
	 viewBox="0 0 633 106" style="enable-background:new 0 0 633 106;" xml:space="preserve">
<style type="text/css">
	.st0{fill:#FFFFFF;}
	.st1{fill:#E69E32;}
</style>
<g>
	<path class="st0" d="M531.22,26.21c-2.29,0-4.39-0.56-6.28-1.69c-1.9-1.12-3.41-2.63-4.53-4.53c-1.13-1.9-1.69-4.01-1.69-6.35
		c0-2.29,0.56-4.37,1.69-6.25c1.12-1.88,2.64-3.38,4.53-4.5c1.89-1.13,3.99-1.69,6.28-1.69c2.33,0,4.44,0.56,6.32,1.69
		c1.87,1.12,3.37,2.62,4.5,4.5c1.12,1.88,1.69,3.96,1.69,6.25c0,2.33-0.56,4.45-1.69,6.35c-1.13,1.9-2.63,3.41-4.5,4.53
		C535.66,25.65,533.55,26.21,531.22,26.21z"/>
	<path class="st0" d="M153.46,104.35V1.21h35.07c7.04,0,13.17,1.23,18.38,3.69c5.21,2.46,9.23,6.02,12.07,10.69
		c2.83,4.67,4.25,10.29,4.25,16.88c0,5.13-0.92,9.75-2.75,13.88c-1.83,4.13-4.47,7.62-7.91,10.47c-3.44,2.85-7.57,4.97-12.41,6.34
		l29.14,35.57c1.84,2.25,0.24,5.63-2.67,5.63h-18.41l-31.58-38.88h-2.99v32.85c0,3.33-2.7,6.03-6.03,6.03H153.46z M173.65,48.66
		h8.63c4.17,0,7.73-0.63,10.69-1.88c2.96-1.25,5.21-3.04,6.75-5.38c1.54-2.33,2.31-5.15,2.31-8.44c0-4.96-1.71-8.79-5.13-11.5
		c-3.42-2.71-8.29-4.06-14.63-4.06h-8.63V48.66z"/>
	<path class="st0" d="M267.42,104.35c-7.09,0-13.47-1.45-19.16-4.34c-5.69-2.89-10.19-6.9-13.5-12c-3.31-5.1-4.97-10.99-4.97-17.66
		c0-6.67,1.66-12.55,4.97-17.66c3.31-5.1,7.8-9.11,13.47-12c5.67-2.9,12.04-4.34,19.13-4.34c7.08,0,13.46,1.45,19.13,4.34
		c5.67,2.9,10.16,6.9,13.47,12c3.31,5.1,4.97,10.99,4.97,17.66c0,6.67-1.66,12.55-4.97,17.66c-3.31,5.1-7.8,9.11-13.47,12
		C280.81,102.91,274.46,104.35,267.42,104.35z M267.42,87.98c3.25,0,6.21-0.75,8.87-2.25s4.77-3.57,6.32-6.22
		c1.54-2.65,2.31-5.7,2.31-9.16s-0.77-6.51-2.31-9.16c-1.54-2.65-3.65-4.72-6.32-6.22c-2.67-1.5-5.62-2.25-8.87-2.25
		c-3.29,0-6.26,0.75-8.91,2.25c-2.65,1.5-4.75,3.57-6.31,6.22c-1.56,2.65-2.35,5.7-2.35,9.16s0.78,6.51,2.35,9.16
		c1.56,2.65,3.67,4.72,6.31,6.22C261.16,87.23,264.12,87.98,267.42,87.98z"/>
	<path class="st0" d="M341.49,104.35c-5.88,0-11.22-1.47-16.03-4.41c-4.81-2.94-8.63-6.98-11.44-12.13
		c-2.81-5.15-4.22-10.99-4.22-17.53c0-6.46,1.37-12.24,4.09-17.35c2.73-5.1,6.48-9.15,11.25-12.13c4.77-2.98,10.22-4.47,16.35-4.47
		c4.54,0,8.78,0.87,12.72,2.59c3.94,1.73,7.16,4.14,9.66,7.22v-7.81h19.19v56.74c0,4.02-3.26,7.27-7.27,7.27h-11.92v-8.44
		c-2.92,3.33-6.27,5.91-10.06,7.72C350.02,103.45,345.91,104.35,341.49,104.35z M347.18,88.04c3.33,0,6.28-0.76,8.84-2.28
		c2.56-1.52,4.58-3.6,6.06-6.25c1.48-2.65,2.22-5.7,2.22-9.16c0-3.42-0.74-6.46-2.22-9.13c-1.48-2.67-3.5-4.76-6.06-6.28
		c-2.56-1.52-5.51-2.28-8.84-2.28c-3.29,0-6.23,0.76-8.82,2.28c-2.58,1.52-4.62,3.61-6.13,6.28s-2.25,5.71-2.25,9.13
		c0,3.37,0.75,6.4,2.25,9.06s3.54,4.77,6.13,6.31C340.95,87.27,343.89,88.04,347.18,88.04z"/>
	<path class="st0" d="M419.42,104.35c-5.79,0-11.09-1.45-15.88-4.34c-4.79-2.89-8.61-6.91-11.44-12.03
		c-2.84-5.13-4.25-11-4.25-17.63c0-6.5,1.38-12.31,4.13-17.44c2.75-5.13,6.54-9.17,11.38-12.13c4.83-2.96,10.33-4.44,16.5-4.44
		c4.5,0,8.66,0.87,12.47,2.59c3.81,1.73,7.01,4.14,9.59,7.22V1.21h19.19v93.87c0,4.02-3.26,7.27-7.27,7.27h-11.92v-8.44
		c-2.88,3.29-6.25,5.86-10.13,7.69C427.92,103.44,423.8,104.35,419.42,104.35z M425.17,88.04c3.33,0,6.29-0.76,8.88-2.28
		c2.58-1.52,4.61-3.6,6.09-6.25c1.48-2.65,2.22-5.68,2.22-9.1c0-3.42-0.74-6.46-2.22-9.13c-1.48-2.67-3.51-4.77-6.09-6.32
		c-2.58-1.54-5.52-2.31-8.81-2.31c-3.29,0-6.23,0.77-8.82,2.31c-2.58,1.54-4.62,3.65-6.13,6.32c-1.5,2.67-2.25,5.73-2.25,9.19
		c0,3.38,0.72,6.4,2.16,9.06s3.45,4.75,6.03,6.25C418.82,87.29,421.8,88.04,425.17,88.04z"/>
	<path class="st0" d="M491.31,104.35c-2.29,0-4.39-0.56-6.28-1.69c-1.9-1.12-3.41-2.63-4.53-4.53c-1.13-1.9-1.69-4.01-1.69-6.35
		c0-2.29,0.56-4.37,1.69-6.25c1.12-1.88,2.64-3.38,4.53-4.5c1.89-1.13,3.99-1.69,6.28-1.69c2.33,0,4.44,0.56,6.32,1.69
		c1.87,1.12,3.37,2.62,4.5,4.5c1.12,1.88,1.69,3.96,1.69,6.25c0,2.33-0.56,4.45-1.69,6.35c-1.13,1.9-2.63,3.41-4.5,4.53
		C495.75,103.79,493.64,104.35,491.31,104.35z"/>
	<path class="st0" d="M521.62,104.35V36.34h19.19v60.74c0,4.02-3.26,7.27-7.27,7.27H521.62z"/>
	<path class="st0" d="M587.26,104.35c-7.09,0-13.47-1.45-19.16-4.34c-5.69-2.89-10.19-6.9-13.5-12c-3.31-5.1-4.97-10.99-4.97-17.66
		c0-6.67,1.66-12.55,4.97-17.66c3.31-5.1,7.8-9.11,13.47-12c5.67-2.9,12.04-4.34,19.13-4.34c7.08,0,13.46,1.45,19.13,4.34
		c5.67,2.9,10.16,6.9,13.47,12c3.31,5.1,4.97,10.99,4.97,17.66c0,6.67-1.66,12.55-4.97,17.66c-3.31,5.1-7.8,9.11-13.47,12
		C600.66,102.91,594.3,104.35,587.26,104.35z M587.26,87.98c3.25,0,6.21-0.75,8.87-2.25c2.67-1.5,4.77-3.57,6.32-6.22
		c1.54-2.65,2.31-5.7,2.31-9.16s-0.77-6.51-2.31-9.16c-1.54-2.65-3.65-4.72-6.32-6.22c-2.67-1.5-5.62-2.25-8.87-2.25
		c-3.29,0-6.26,0.75-8.91,2.25c-2.65,1.5-4.75,3.57-6.31,6.22c-1.56,2.65-2.35,5.7-2.35,9.16s0.78,6.51,2.35,9.16
		c1.56,2.65,3.67,4.72,6.31,6.22C581,87.23,583.97,87.98,587.26,87.98z"/>
	<path class="st0" d="M111.81,10.51v9.15c-46.77,0-84.68,37.91-84.68,84.68h-9.16c-5.1,0-9.23-4.13-9.23-9.24v-84.6
		c0-5.1,4.13-9.23,9.23-9.23h84.6C107.68,1.28,111.81,5.41,111.81,10.51z"/>
	<path class="st1" d="M111.81,58.08v37.03c0,5.1-4.13,9.24-9.23,9.24H65.55C65.55,78.79,86.26,58.08,111.81,58.08z"/>
</g>
</svg>
